<svg width="347" height="107" xmlns="http://www.w3.org/2000/svg" viewBox="0 0 347.52 107.84"><defs><style>.cls-2{fill:none;stroke:#dee3e6;stroke-width:2.5px}.cls-3{fill:#13171c}</style></defs><path d="M16.91.28h313.24a16.79 16.79 0 0116.83 16.76v74a16.81 16.81 0 01-16.92 16.76H16.91A16.93 16.93 0 010 90.95V17.04A16.8 16.8 0 0116.91.28z" fill="#eceff1"/><path class="cls-2" d="M14.53 16.67h6.94v6.88h-6.94zm-.54 69.74h6.94v6.88h-6.94zM.36 65.34h78.29v41.7m177.14 0v-56.1h20.49m49.77 56.1v-56.1h-21.58M255.79 67.8h70.48m-54.22-8.6h37.08m-4.77-41.4v15.9m-13.44-17v12m-11.5-13.33V25.7m2.44 32.81a8.67 8.67 0 1116.38 0"/><path class="cls-2" d="M276.28 58.91a14.28 14.28 0 01-.5-3.77 14.71 14.71 0 1128.91 3.77M317.36 0v26.22h30.15M24.2.08v8.6h24.72V29.8h59.44V65h56.8V18.57h24.29v80.82h23V37.91h35.57V.08"/><path class="cls-3" d="M33.05 29.6h5.64a8.57 8.57 0 013.12.51 5.59 5.59 0 012.34 1.46 7.06 7.06 0 011.48 2.5 10.42 10.42 0 01.52 3.44 11 11 0 01-.52 3.52 5.59 5.59 0 01-1.57 2.49 8 8 0 01-2.51 1.55 9.69 9.69 0 01-3.3.52h-5.12v-16zm5.2 14.2c2 0 3.47-.51 4.34-1.63a7 7 0 001.39-4.64 8.06 8.06 0 00-.35-2.58 5.21 5.21 0 00-1-2 3.39 3.39 0 00-1.65-1.21 7 7 0 00-2.43-.43h-3.51V43.8zm15.88 2.13a6.69 6.69 0 01-2.35-.43 4.24 4.24 0 01-1.73-1.2 5.35 5.35 0 01-1.13-1.89 8.14 8.14 0 01-.35-2.61 8 8 0 01.44-2.58 7.1 7.1 0 011.13-2 4.94 4.94 0 011.82-1.2 6.58 6.58 0 014.68 0 4.09 4.09 0 011.74 1.2 5.24 5.24 0 011.12 1.89 7.6 7.6 0 01.35 2.5 8 8 0 01-.43 2.57 5.56 5.56 0 01-1.13 2 5.18 5.18 0 01-1.82 1.21 6.91 6.91 0 01-2.34.54zm0-1.63a3.28 3.28 0 001.64-.35 3.71 3.71 0 001.13-.94 3.79 3.79 0 00.61-1.46 6.26 6.26 0 00.17-1.81 10.2 10.2 0 00-.17-1.8 7.2 7.2 0 00-.61-1.47 3 3 0 00-1.13-.94 3.07 3.07 0 00-1.64-.35 3.52 3.52 0 00-1.65.35 3.86 3.86 0 00-1.13.94 2.79 2.79 0 00-.61 1.47 6.16 6.16 0 00-.17 1.8 11.5 11.5 0 00.17 1.81 8 8 0 00.62 1.46 2.89 2.89 0 001.13.94 3.52 3.52 0 001.64.35zm8.32-10.32h1.91v1.82a5.63 5.63 0 011.91-1.64 4.78 4.78 0 012.17-.51 3.83 3.83 0 013 1 4.79 4.79 0 011 3.18v7.67h-2v-7.31a3.15 3.15 0 00-.61-2.23 2.35 2.35 0 00-1.82-.69 3.5 3.5 0 00-1.3.26 4.75 4.75 0 00-1.13.69 4.46 4.46 0 00-.87 1 3.44 3.44 0 00-.26 1.46v6.88h-1.91zm20.13 9.97a5.57 5.57 0 01-1.56 1.29 5 5 0 01-2.43.61 9.26 9.26 0 01-1.65-.18 3.77 3.77 0 01-1.3-.68 2.58 2.58 0 01-.78-1.12 4 4 0 01-.26-1.55 3.05 3.05 0 01.52-1.89 3.73 3.73 0 011.39-1.2 6.21 6.21 0 011.91-.61l2.16-.25 2-.09v-.43a3.05 3.05 0 00-.61-2.15 2.87 2.87 0 00-2.08-.69 4.11 4.11 0 00-2.08.43 2 2 0 00-.87 1.29l-1.82-.17a3.31 3.31 0 011.47-2.32 5.89 5.89 0 013.21-.69 5.62 5.62 0 012.17.34 3.3 3.3 0 011.39.91 3.53 3.53 0 01.78 1.38 6.35 6.35 0 01.26 1.89v7.43h-1.91v-1.55zm-.09-4.21l-1.82.09a6.28 6.28 0 00-2 .26 2.19 2.19 0 00-1.22.51 1.49 1.49 0 00-.69.77 2 2 0 00-.18 1 1.82 1.82 0 00.52 1.37 2.45 2.45 0 001.74.52 3.76 3.76 0 002.69-.86 3.15 3.15 0 00.95-2.32zm5.64-4.21h-1.77v-1.55h1.82V30.8h2v3.18h3.13v1.55h-3.13v6.79a2.2 2.2 0 00.35 1.38 1.37 1.37 0 001.22.51 2.86 2.86 0 00.86-.08c.26-.09.44-.09.7-.18l.35 1.47c-.26.08-.61.17-1 .25a5.14 5.14 0 01-1.21.09 3.63 3.63 0 01-1.56-.26 1.82 1.82 0 01-1-.86 3.41 3.41 0 01-.52-1.29 9.37 9.37 0 01-.09-1.63v-6.19zm16.83 6.79a4.32 4.32 0 01-1.48 2.67 5.73 5.73 0 01-3.47.94 5.06 5.06 0 01-4.07-1.63 6.41 6.41 0 01-1.39-4.5 8.25 8.25 0 01.43-2.67 6.42 6.42 0 011.13-2 4.89 4.89 0 011.74-1.2 6 6 0 012.16-.43 6.69 6.69 0 012.35.43 3.75 3.75 0 011.56 1.2 6.11 6.11 0 01.95 1.81 9.45 9.45 0 01.35 2.24v.94h-8.68a5 5 0 00.26 1.63 3.09 3.09 0 00.7 1.29 3.43 3.43 0 001.13.86 3.92 3.92 0 001.47.35 3.59 3.59 0 002.17-.52 2.88 2.88 0 001-1.46zm-1.82-3.52a7.3 7.3 0 00-.18-1.47 3 3 0 00-.52-1.11 2.6 2.6 0 00-1-.78 3.81 3.81 0 00-1.48-.26 3.26 3.26 0 00-2.42.95 4.22 4.22 0 00-1 2.75h6.6zm8.22-4.82h2.17l2.34 9.2 2.69-9.11h2l2.61 9.11 2.34-9.2h2.08l-3.37 11.52h-2.09l-2.6-9.2-2.6 9.2h-2.08zm17.89-4.38h2.11v2.2h-2.08zm.08 4.38h2V45.5h-2zm5.73 1.55h-1.82v-1.55h1.82V30.8h2v3.18h3.13v1.55h-3.13v6.79a2.2 2.2 0 00.3 1.38 1.37 1.37 0 001.22.51 2.86 2.86 0 00.86-.08c.26-.09.44-.09.7-.18l.34 1.47c-.26.08-.6.17-.95.25a5.18 5.18 0 01-1.17.13 3.69 3.69 0 01-1.56-.26 1.84 1.84 0 01-1-.86 3.41 3.41 0 01-.52-1.29 9.37 9.37 0 01-.09-1.63v-6.23zm7.11-5.93h2v6.1a5.19 5.19 0 011.9-1.55 4.81 4.81 0 012.17-.51 3.82 3.82 0 013 1 4.79 4.79 0 011 3.18v7.68h-2v-7.31a3.1 3.1 0 00-.61-2.23 2.22 2.22 0 00-1.82-.69 3.59 3.59 0 00-1.3.26 5 5 0 00-1.13.69 4.4 4.4 0 00-.86 1 3.29 3.29 0 00-.26 1.46v6.88h-2z"/><path d="M33.36 59.09h3.81l8.33 13.07V59.09h4.08v20H45.8l-8.33-13v13h-4.11v-20zm29.27 20.55a12.24 12.24 0 01-4.08-.69 7.5 7.5 0 01-3-2.15 8.91 8.91 0 01-1.91-3.27 14.28 14.28 0 010-8.77 8.23 8.23 0 011.91-3.27 7.38 7.38 0 013-2.06 9.88 9.88 0 014-.69 12.23 12.23 0 014.07.69 9.49 9.49 0 013 2.06 10.17 10.17 0 012.03 3.31 16.07 16.07 0 010 8.77 9.15 9.15 0 01-1.82 3.23 6.9 6.9 0 01-3 2.06 10.78 10.78 0 01-4.2.78zm0-3.61a4.68 4.68 0 004-1.81 8.77 8.77 0 001.3-5.16 8.49 8.49 0 00-1.3-5.07 4.55 4.55 0 00-4-1.81 4.63 4.63 0 00-4 1.81 8.59 8.59 0 00-1.27 5.07 8.7 8.7 0 001.3 5.16 4.55 4.55 0 003.97 1.81zm10.73-16.94h4.77l3.23 13.93 3.3-13.76h4.42l3.47 13.76 3-13.93h4.51l-5.46 20h-4.04L86.83 64.3l-3.64 14.79h-4z" fill="#68aaff"/><path class="cls-3" d="M102.62 59.09h6.94a11.24 11.24 0 013.73.51 6.4 6.4 0 012.34 1.38 4.65 4.65 0 011.21 2 7.14 7.14 0 01.35 2.32 7.85 7.85 0 01-.35 2.49 5 5 0 01-1.21 2.01 6.13 6.13 0 01-2.34 1.38 11.59 11.59 0 01-3.73.52h-3.65v7.48h-3.38V59.09zm6.94 9.71a7.51 7.51 0 002.16-.26 3.64 3.64 0 001.31-.68 3.12 3.12 0 00.69-1.12 7.31 7.31 0 00.17-1.46 6.58 6.58 0 00-.17-1.46 2.25 2.25 0 00-.69-1 3.23 3.23 0 00-1.31-.6 7.28 7.28 0 00-2.08-.26h-3.55v6.84zm18.65 8.34a6.16 6.16 0 01-2 1.64 5.84 5.84 0 01-2.86.68 6.46 6.46 0 01-1.91-.25 4.4 4.4 0 01-1.56-.78 3.42 3.42 0 01-1-1.37 4.76 4.76 0 01-.35-2 4.46 4.46 0 01.69-2.49 4.87 4.87 0 011.74-1.47 10 10 0 012.43-.77 14.42 14.42 0 012.69-.26l2.17-.08v-.59a2.89 2.89 0 00-.78-2.32 3.19 3.19 0 00-2.09-.6 3.89 3.89 0 00-2.25.52 2.46 2.46 0 00-1 1.46l-3-.34a4.44 4.44 0 011.91-3.1 8.2 8.2 0 014.25-1 9 9 0 012.87.43 4 4 0 011.82 1.21 4.33 4.33 0 011 1.89 10.47 10.47 0 01.26 2.41v9.11h-3.12v-2zm-2.17-4.9a13 13 0 00-2.34.35 4 4 0 00-1.39.6 1.59 1.59 0 00-.61.77 3.1 3.1 0 00-.17 1 1.78 1.78 0 00.6 1.47 2.93 2.93 0 001.83.51 4.27 4.27 0 003.12-1 3.9 3.9 0 001-2.92v-.86zm8.5 9.46a4.76 4.76 0 001.65.26 1.81 1.81 0 001.3-.43 3.11 3.11 0 00.86-1.55l.53-1.38-6.16-14.1h3.73l4.07 10.49 3.73-10.49h3.47l-5.81 14.71c-.34.86-.69 1.63-1 2.23a4.49 4.49 0 01-1 1.64 5 5 0 01-1.3 1 4 4 0 01-1.91.34 6.67 6.67 0 01-2.69-.43zm18.39-17.2v2.07a5.49 5.49 0 013.64-2.41 4.43 4.43 0 011.13-.09 3.73 3.73 0 012.43.78 4.54 4.54 0 011.39 1.89 5.87 5.87 0 014.77-2.67 4.41 4.41 0 013.47 1.29 6.57 6.57 0 011.12 4.13v9.63h-3.2v-8.77a10.34 10.34 0 00-.18-1.81 3.57 3.57 0 00-.43-1.11 2.38 2.38 0 00-.7-.6 3 3 0 00-.95-.18 2.63 2.63 0 00-1.47.35 4.79 4.79 0 00-1.13.77 5.29 5.29 0 00-.7 1.12 3.49 3.49 0 00-.26 1.29v8.77h-3.21v-8.94a3.77 3.77 0 00-.6-2.58 2.06 2.06 0 00-1.57-.69 7.29 7.29 0 00-1 .17 3 3 0 00-1.12.6 4.08 4.08 0 00-1 1.12 3.36 3.36 0 00-.43 1.72v8.68h-3.21V64.5zm34.43 10.24a5.9 5.9 0 01-1.91 3.52 6.78 6.78 0 01-4.43 1.29 6.91 6.91 0 01-5.29-2 8.13 8.13 0 01-1.82-5.67 10.09 10.09 0 01.52-3.36 8 8 0 011.48-2.49 5.83 5.83 0 012.25-1.55 7.78 7.78 0 012.86-.51 7.89 7.89 0 013 .51 6.07 6.07 0 012.09 1.47 6.15 6.15 0 011.21 2.23 9.92 9.92 0 01.43 2.92v1.4h-10.62a4.7 4.7 0 001 3.18 3.74 3.74 0 002.95 1.21 3.24 3.24 0 002.26-.61 2.94 2.94 0 001-1.72h3.02zm-2.95-4.39a4.13 4.13 0 00-.87-2.84 3.27 3.27 0 00-2.69-1 3.39 3.39 0 00-2.69 1 4.69 4.69 0 00-1 2.84zm9.46-5.85v2.15a7.74 7.74 0 012.17-2 5.5 5.5 0 012.6-.61q5 0 4.95 5.42v9.63h-3.23v-9.2a3.78 3.78 0 00-.61-2.49 2.26 2.26 0 00-1.91-.69 5 5 0 00-1.56.26 3.38 3.38 0 00-2 2 3.43 3.43 0 00-.27 1.38v8.68h-3.2V64.5zm11.8 2.58v-2.49h2.34v-4h3.21v4h3.64v2.49h-3.64v7.66a2.63 2.63 0 00.43 1.63 1.86 1.86 0 001.39.52 3.48 3.48 0 001-.09 3.28 3.28 0 00.86-.17l.52 2.4a10.44 10.44 0 01-2.95.43c-1.64 0-2.77-.43-3.38-1.29a6.32 6.32 0 01-.95-3.69v-7.31h-2.43zm13.96 7.57a2.49 2.49 0 00.44 1.2 2.16 2.16 0 00.78.78 2.49 2.49 0 001.13.34 6.27 6.27 0 001.3.09 4.23 4.23 0 002.34-.52 1.66 1.66 0 00.69-1.37 1.87 1.87 0 00-.43-1.21 2.62 2.62 0 00-1.82-.69c-1.13-.17-2.17-.43-3.12-.6a7.78 7.78 0 01-2.26-.77 4.13 4.13 0 01-1.39-1.29 3.75 3.75 0 01-.43-2.07 4 4 0 01.43-1.8 3.35 3.35 0 011.3-1.38 6.81 6.81 0 011.91-.86 11.13 11.13 0 012.43-.34 9.54 9.54 0 012.86.34 4.64 4.64 0 011.83 1 4 4 0 011 1.38 8.72 8.72 0 01.6 1.63l-2.95.43a3.71 3.71 0 00-1-1.63 3.84 3.84 0 00-2.34-.52 8.25 8.25 0 00-1.56.17 2.54 2.54 0 00-.95.43 1.15 1.15 0 00-.52.6 1.42 1.42 0 00-.09.6 1.84 1.84 0 00.09.78 1.09 1.09 0 00.46.43 1.57 1.57 0 00.78.35c.35.08.78.17 1.3.26l1.82.34a12.11 12.11 0 012.43.6 4.3 4.3 0 011.56 1 2.78 2.78 0 01.78 1.29 4.94 4.94 0 01.26 1.72 3.83 3.83 0 01-1.56 3.18 7.82 7.82 0 01-4.68 1.2 10.59 10.59 0 01-2.43-.26 7.42 7.42 0 01-2.08-.77 4 4 0 01-1.48-1.46 5.85 5.85 0 01-.7-2.45h3.29z"/></svg>